<svg width="17" height="17" viewBox="0 0 17 17" fill="none" xmlns="http://www.w3.org/2000/svg">
<path d="M14.5441 0.789888C15.11 0.789888 15.5943 0.991228 15.997 1.39391C16.3997 1.79659 16.6014 2.28124 16.6021 2.84788L16.6021 4.90587C16.6021 5.19742 16.5033 5.44163 16.3057 5.63851C16.1081 5.83539 15.8639 5.93418 15.5731 5.93486C15.2822 5.93555 15.0376 5.83676 14.8394 5.63851C14.6411 5.44026 14.5427 5.19604 14.5441 4.90587L14.5441 2.84788L2.19612 2.84788L2.19612 4.90587C2.19612 5.19741 2.09734 5.44163 1.89977 5.63851C1.70221 5.83539 1.45799 5.93417 1.16713 5.93486C0.876265 5.93555 0.631708 5.83676 0.433455 5.63851C0.235202 5.44026 0.136761 5.19604 0.138133 4.90587L0.138133 2.84788C0.138133 2.28193 0.339473 1.79727 0.742153 1.39391C1.14483 0.990541 1.62949 0.789201 2.19612 0.789887L14.5441 0.789888ZM9.39909 13.2922L11.3285 11.3628C11.5343 11.157 11.7785 11.0582 12.0611 11.0665C12.3437 11.0747 12.5883 11.182 12.7948 11.3885C12.9834 11.5943 13.0822 11.8344 13.0911 12.1088C13.1 12.3832 13.0013 12.6233 12.7948 12.8291L9.09039 16.5335C8.98749 16.6364 8.87601 16.7091 8.75596 16.7517C8.63592 16.7942 8.50729 16.8158 8.37009 16.8165C8.23289 16.8172 8.10427 16.7956 7.98422 16.7517C7.86417 16.7078 7.75269 16.635 7.6498 16.5335L3.94541 12.8291C3.73962 12.6233 3.64083 12.3832 3.64906 12.1088C3.6573 11.8344 3.75608 11.5943 3.94541 11.3885C4.15121 11.1827 4.39543 11.0754 4.67806 11.0665C4.96069 11.0575 5.20525 11.1563 5.41173 11.3628L7.3411 13.2922L7.3411 5.93486C7.3411 5.64331 7.43988 5.39875 7.63745 5.20119C7.83502 5.00362 8.07923 4.90518 8.37009 4.90587C8.66096 4.90655 8.90517 5.00534 9.10274 5.20222C9.3003 5.3991 9.39909 5.64331 9.39909 5.93486L9.39909 13.2922Z" fill="#F46A71"/>
</svg>
