<svg width="55" height="77" viewBox="0 0 55 77" fill="none" xmlns="http://www.w3.org/2000/svg">
<path d="M0.364746 41.3045H54.1078L52.0792 48.4476C34.7792 48.5904 31.004 69.8796 47.6276 71.7945C47.6276 71.7945 47.6276 71.7945 46.6639 76.3802L8.31542 76.4032L8.31542 67.6169C8.31542 67.6169 22.9457 67.2167 20.3691 59.6814C17.7925 52.146 5.23803 57.1973 0.364746 41.3045Z" fill="#C44A50"/>
<path d="M28.0834 0.204662C45.5362 10.0241 33.3218 22.3397 38.5056 24.9169C43.6894 27.4941 43.9288 17.8826 43.9288 17.8826C47.6245 24.2738 48.8106 30.0871 45.4387 37.6978H14.4434C10.7441 32.0044 13.7014 22.8095 20.77 17.7636C29.2993 11.5575 32.6131 7.60866 28.0834 0.204662Z" fill="#C44A50"/>
</svg>
