<svg width="491" height="258" viewBox="0 0 491 258" fill="none" xmlns="http://www.w3.org/2000/svg">
<g clip-path="url(#clip0_1127_4)">
<path d="M0 104.933H137.213L132.034 123.171C87.8649 123.535 78.2261 177.889 120.668 182.779C120.668 182.779 120.668 182.779 118.208 194.486L20.2992 194.545L20.2991 172.113C20.2991 172.113 57.6523 171.091 51.0739 151.852C44.4954 132.613 12.4422 145.51 0 104.933Z" fill="#C44A50"/>
<path d="M70.7694 0C115.329 25.0704 84.1438 56.5138 97.3788 63.0938C110.614 69.6737 111.225 45.1342 111.225 45.1342C120.66 61.4518 123.689 76.294 115.08 95.725H35.9447C26.4999 81.1891 34.0502 57.7132 52.0974 44.8302C73.8739 28.9854 82.3344 18.9034 70.7694 0Z" fill="#C44A50"/>
<path d="M219.943 104.839L216.193 124.839H193.193V141.839H213.943L210.193 161.839H193.193V194.839H168.818V121.964L161.943 104.839H219.943Z" fill="#C44A50"/>
<path d="M253.987 196.089C245.821 196.089 239.237 194.714 234.237 191.964C229.237 189.131 225.571 184.381 223.237 177.714C220.987 170.964 219.862 161.714 219.862 149.964C219.862 138.214 220.987 129.006 223.237 122.339C225.571 115.589 229.237 110.839 234.237 108.089C239.237 105.256 245.821 103.839 253.987 103.839C262.154 103.839 268.737 105.256 273.737 108.089C278.737 110.839 282.362 115.589 284.612 122.339C286.946 129.006 288.112 138.214 288.112 149.964C288.112 161.714 286.946 170.964 284.612 177.714C282.362 184.381 278.737 189.131 273.737 191.964C268.737 194.714 262.154 196.089 253.987 196.089ZM261.862 149.714C261.862 142.548 261.612 137.089 261.112 133.339C260.696 129.506 259.904 126.881 258.737 125.464C257.654 123.964 256.071 123.214 253.987 123.214C251.987 123.214 250.404 123.964 249.237 125.464C248.071 126.881 247.237 129.506 246.737 133.339C246.321 137.089 246.112 142.548 246.112 149.714C246.112 156.798 246.321 162.298 246.737 166.214C247.237 170.131 248.071 172.881 249.237 174.464C250.404 175.964 251.987 176.714 253.987 176.714C256.071 176.714 257.654 175.964 258.737 174.464C259.904 172.881 260.696 170.131 261.112 166.214C261.612 162.298 261.862 156.798 261.862 149.714Z" fill="#C44A50"/>
<path d="M325.128 104.839C332.461 104.839 338.586 105.798 343.503 107.714C348.42 109.548 352.086 112.673 354.503 117.089C357.003 121.423 358.253 127.381 358.253 134.964C358.253 141.298 357.295 146.506 355.378 150.589C353.461 154.589 350.545 157.798 346.628 160.214L361.878 194.839H334.753L324.878 165.589H320.878V194.839H296.503V121.964L289.628 104.839H325.128ZM320.878 148.839C324.711 148.839 327.545 147.881 329.378 145.964C331.211 144.048 332.128 140.673 332.128 135.839C332.128 132.006 331.795 129.173 331.128 127.339C330.461 125.423 329.295 124.131 327.628 123.464C326.045 122.798 323.795 122.464 320.878 122.464V148.839Z" fill="#C44A50"/>
<path d="M390.033 150.339C390.033 156.506 390.492 161.423 391.408 165.089C392.325 168.756 393.867 171.423 396.033 173.089C398.283 174.756 401.367 175.756 405.283 176.089V167.464L398.408 150.339H427.783V190.589C425.117 192.339 421.658 193.714 417.408 194.714C413.158 195.631 408.283 196.089 402.783 196.089C394.783 196.089 387.867 194.589 382.033 191.589C376.2 188.589 371.7 183.756 368.533 177.089C365.367 170.339 363.783 161.464 363.783 150.464C363.783 139.381 365.492 130.423 368.908 123.589C372.325 116.756 377.117 111.756 383.283 108.589C389.45 105.423 396.617 103.839 404.783 103.839C407.7 103.839 410.742 104.089 413.908 104.589C417.075 105.089 420.325 105.673 423.658 106.339L421.408 126.839C418.658 126.339 416.283 125.964 414.283 125.714C412.367 125.381 410.408 125.214 408.408 125.214C404.075 125.214 400.533 125.923 397.783 127.339C395.117 128.756 393.158 131.298 391.908 134.964C390.658 138.548 390.033 143.673 390.033 150.339Z" fill="#C44A50"/>
<path d="M429.643 104.839H489.518L485.768 124.839H460.893V138.589H484.268L480.518 158.589H460.893V174.839H490.393L486.643 194.839H436.518V121.964L429.643 104.839Z" fill="#C44A50"/>
<path d="M172.191 228.531C172.191 230.258 172.319 231.634 172.576 232.661C172.832 233.688 173.264 234.434 173.871 234.901C174.501 235.368 175.364 235.648 176.461 235.741V233.326L174.536 228.531H182.761V239.801C182.014 240.291 181.046 240.676 179.856 240.956C178.666 241.213 177.301 241.341 175.761 241.341C173.521 241.341 171.584 240.921 169.951 240.081C168.317 239.241 167.057 237.888 166.171 236.021C165.284 234.131 164.841 231.646 164.841 228.566C164.841 225.463 165.319 222.954 166.276 221.041C167.232 219.128 168.574 217.728 170.301 216.841C172.027 215.954 174.034 215.511 176.321 215.511C177.137 215.511 177.989 215.581 178.876 215.721C179.762 215.861 180.672 216.024 181.606 216.211L180.976 221.951C180.206 221.811 179.541 221.706 178.981 221.636C178.444 221.543 177.896 221.496 177.336 221.496C176.122 221.496 175.131 221.694 174.361 222.091C173.614 222.488 173.066 223.199 172.716 224.226C172.366 225.229 172.191 226.664 172.191 228.531ZM189.371 241.341C188.438 241.341 187.563 241.108 186.746 240.641C185.93 240.151 185.265 239.451 184.751 238.541C184.238 237.631 183.981 236.534 183.981 235.251C183.981 233.244 184.681 231.728 186.081 230.701C187.505 229.674 189.336 229.161 191.576 229.161H193.081V227.236C193.081 226.559 192.848 226.104 192.381 225.871C191.915 225.614 191.32 225.486 190.596 225.486C189.71 225.486 188.858 225.568 188.041 225.731C187.225 225.894 186.408 226.128 185.591 226.431V221.531C186.641 221.298 187.726 221.088 188.846 220.901C189.99 220.691 191.133 220.586 192.276 220.586C193.56 220.586 194.738 220.749 195.811 221.076C196.885 221.379 197.748 221.939 198.401 222.756C199.055 223.573 199.381 224.739 199.381 226.256V240.991H193.921L193.501 239.486C192.918 240.116 192.265 240.583 191.541 240.886C190.818 241.189 190.095 241.341 189.371 241.341ZM191.821 236.721C192.288 236.721 192.708 236.511 193.081 236.091V232.626H192.626C191.926 232.626 191.331 232.801 190.841 233.151C190.351 233.478 190.106 233.979 190.106 234.656C190.106 235.309 190.281 235.823 190.631 236.196C190.981 236.546 191.378 236.721 191.821 236.721ZM211.565 239.626C210.912 240.163 210.212 240.583 209.465 240.886C208.719 241.189 207.972 241.341 207.225 241.341C205.685 241.341 204.402 240.839 203.375 239.836C202.349 238.833 201.835 237.328 201.835 235.321V220.866H208.135V234.236C208.135 235.659 208.707 236.371 209.85 236.371C210.294 236.371 210.702 236.243 211.075 235.986V220.866H217.375V240.991H212.02L211.565 239.626ZM226.635 235.111C226.635 234.714 226.343 234.329 225.76 233.956L222.75 231.996C221.653 231.273 220.86 230.491 220.37 229.651C219.88 228.811 219.635 227.714 219.635 226.361C219.635 224.424 220.206 222.989 221.35 222.056C222.493 221.099 224.371 220.609 226.985 220.586C227.965 220.586 228.863 220.633 229.68 220.726C230.52 220.796 231.185 220.878 231.675 220.971C232.188 221.064 232.445 221.111 232.445 221.111L231.92 225.766C231.92 225.766 231.745 225.743 231.395 225.696C231.045 225.649 230.59 225.603 230.03 225.556C229.493 225.486 228.933 225.451 228.35 225.451C227.51 225.451 226.903 225.521 226.53 225.661C226.156 225.801 225.97 226.069 225.97 226.466C225.97 226.699 226.04 226.898 226.18 227.061C226.32 227.201 226.541 227.364 226.845 227.551L229.925 229.546C231.045 230.269 231.85 231.051 232.34 231.891C232.83 232.708 233.075 233.769 233.075 235.076C233.075 237.153 232.48 238.716 231.29 239.766C230.1 240.793 228.151 241.318 225.445 241.341C224.255 241.341 223.158 241.271 222.155 241.131C221.175 241.014 220.276 240.851 219.46 240.641L219.985 235.881C219.985 235.881 220.416 235.951 221.28 236.091C222.143 236.208 223.286 236.266 224.71 236.266C225.993 236.266 226.635 235.881 226.635 235.111ZM241.64 235.111C241.64 234.714 241.348 234.329 240.765 233.956L237.755 231.996C236.658 231.273 235.865 230.491 235.375 229.651C234.885 228.811 234.64 227.714 234.64 226.361C234.64 224.424 235.211 222.989 236.355 222.056C237.498 221.099 239.376 220.609 241.99 220.586C242.97 220.586 243.868 220.633 244.685 220.726C245.525 220.796 246.19 220.878 246.68 220.971C247.193 221.064 247.45 221.111 247.45 221.111L246.925 225.766C246.925 225.766 246.75 225.743 246.4 225.696C246.05 225.649 245.595 225.603 245.035 225.556C244.498 225.486 243.938 225.451 243.355 225.451C242.515 225.451 241.908 225.521 241.535 225.661C241.161 225.801 240.975 226.069 240.975 226.466C240.975 226.699 241.045 226.898 241.185 227.061C241.325 227.201 241.546 227.364 241.85 227.551L244.93 229.546C246.05 230.269 246.855 231.051 247.345 231.891C247.835 232.708 248.08 233.769 248.08 235.076C248.08 237.153 247.485 238.716 246.295 239.766C245.105 240.793 243.156 241.318 240.45 241.341C239.26 241.341 238.163 241.271 237.16 241.131C236.18 241.014 235.281 240.851 234.465 240.641L234.99 235.881C234.99 235.881 235.421 235.951 236.285 236.091C237.148 236.208 238.291 236.266 239.715 236.266C240.998 236.266 241.64 235.881 241.64 235.111ZM250.17 220.866H256.47V240.991H250.17V220.866ZM249.995 214.566H256.645V219.326H249.995V214.566ZM263.951 241.341C263.018 241.341 262.143 241.108 261.326 240.641C260.51 240.151 259.845 239.451 259.331 238.541C258.818 237.631 258.561 236.534 258.561 235.251C258.561 233.244 259.261 231.728 260.661 230.701C262.085 229.674 263.916 229.161 266.156 229.161H267.661V227.236C267.661 226.559 267.428 226.104 266.961 225.871C266.495 225.614 265.9 225.486 265.176 225.486C264.29 225.486 263.438 225.568 262.621 225.731C261.805 225.894 260.988 226.128 260.171 226.431V221.531C261.221 221.298 262.306 221.088 263.426 220.901C264.57 220.691 265.713 220.586 266.856 220.586C268.14 220.586 269.318 220.749 270.391 221.076C271.465 221.379 272.328 221.939 272.981 222.756C273.635 223.573 273.961 224.739 273.961 226.256V240.991H268.501L268.081 239.486C267.498 240.116 266.845 240.583 266.121 240.886C265.398 241.189 264.675 241.341 263.951 241.341ZM266.401 236.721C266.868 236.721 267.288 236.511 267.661 236.091V232.626H267.206C266.506 232.626 265.911 232.801 265.421 233.151C264.931 233.478 264.686 233.979 264.686 234.656C264.686 235.309 264.861 235.823 265.211 236.196C265.561 236.546 265.958 236.721 266.401 236.721ZM282.4 222.231C283.777 221.134 285.27 220.586 286.88 220.586C288.49 220.586 289.82 221.088 290.87 222.091C291.944 223.094 292.48 224.599 292.48 226.606V240.991H286.18V227.621C286.18 226.198 285.539 225.486 284.255 225.486C283.742 225.486 283.287 225.614 282.89 225.871V240.991H276.59V220.866H281.945L282.4 222.231ZM310.341 235.286C311.227 235.286 311.892 235.158 312.336 234.901C312.779 234.644 313.001 234.224 313.001 233.641C313.001 233.244 312.896 232.929 312.686 232.696C312.476 232.463 312.102 232.229 311.566 231.996L307.856 230.281C306.479 229.651 305.417 228.811 304.671 227.761C303.924 226.711 303.551 225.183 303.551 223.176C303.551 220.609 304.216 218.696 305.546 217.436C306.899 216.153 309.127 215.499 312.231 215.476C313.514 215.476 314.681 215.534 315.731 215.651C316.781 215.768 317.621 215.896 318.251 216.036C318.881 216.153 319.196 216.211 319.196 216.211L318.496 221.846C318.496 221.846 318.204 221.811 317.621 221.741C317.061 221.671 316.361 221.613 315.521 221.566C314.681 221.496 313.864 221.461 313.071 221.461C312.231 221.461 311.589 221.589 311.146 221.846C310.726 222.079 310.516 222.534 310.516 223.211C310.516 223.584 310.679 223.899 311.006 224.156C311.332 224.389 311.787 224.634 312.371 224.891L315.346 226.186C316.932 226.886 318.087 227.761 318.811 228.811C319.534 229.838 319.896 231.308 319.896 233.221C319.896 235.811 319.219 237.806 317.866 239.206C316.512 240.606 314.284 241.318 311.181 241.341C309.641 241.341 308.206 241.236 306.876 241.026C305.546 240.839 304.367 240.618 303.341 240.361L304.041 234.726C304.041 234.726 304.321 234.773 304.881 234.866C305.464 234.959 306.234 235.053 307.191 235.146C308.147 235.239 309.197 235.286 310.341 235.286ZM322.186 246.241V220.866H327.541L328.066 222.476C328.603 221.869 329.244 221.403 329.991 221.076C330.761 220.749 331.589 220.586 332.476 220.586C333.759 220.586 334.809 220.866 335.626 221.426C336.466 221.963 337.119 222.709 337.586 223.666C338.076 224.623 338.414 225.708 338.601 226.921C338.811 228.111 338.916 229.371 338.916 230.701C338.916 234.528 338.321 237.258 337.131 238.891C335.941 240.524 334.203 241.341 331.916 241.341C330.889 241.341 329.746 241.131 328.486 240.711V245.331L322.186 246.241ZM329.921 236.441C330.994 236.441 331.671 235.951 331.951 234.971C332.254 233.991 332.406 232.509 332.406 230.526C332.406 228.683 332.266 227.388 331.986 226.641C331.706 225.871 331.181 225.486 330.411 225.486C330.178 225.486 329.898 225.533 329.571 225.626C329.244 225.719 328.883 225.871 328.486 226.081V236.231C329.023 236.371 329.501 236.441 329.921 236.441ZM347.319 240.991H341.019V215.406L347.319 214.566V240.991ZM354.801 241.341C353.868 241.341 352.993 241.108 352.176 240.641C351.359 240.151 350.694 239.451 350.181 238.541C349.668 237.631 349.411 236.534 349.411 235.251C349.411 233.244 350.111 231.728 351.511 230.701C352.934 229.674 354.766 229.161 357.006 229.161H358.511V227.236C358.511 226.559 358.278 226.104 357.811 225.871C357.344 225.614 356.749 225.486 356.026 225.486C355.139 225.486 354.288 225.568 353.471 225.731C352.654 225.894 351.838 226.128 351.021 226.431V221.531C352.071 221.298 353.156 221.088 354.276 220.901C355.419 220.691 356.563 220.586 357.706 220.586C358.989 220.586 360.168 220.749 361.241 221.076C362.314 221.379 363.178 221.939 363.831 222.756C364.484 223.573 364.811 224.739 364.811 226.256V240.991H359.351L358.931 239.486C358.348 240.116 357.694 240.583 356.971 240.886C356.248 241.189 355.524 241.341 354.801 241.341ZM357.251 236.721C357.718 236.721 358.138 236.511 358.511 236.091V232.626H358.056C357.356 232.626 356.761 232.801 356.271 233.151C355.781 233.478 355.536 233.979 355.536 234.656C355.536 235.309 355.711 235.823 356.061 236.196C356.411 236.546 356.808 236.721 357.251 236.721ZM375.315 220.866H379.13V225.591H375.315V234.306C375.315 234.959 375.478 235.438 375.805 235.741C376.155 236.044 376.703 236.196 377.45 236.196C377.823 236.196 378.15 236.184 378.43 236.161C378.71 236.114 378.943 236.068 379.13 236.021V240.676C378.57 240.863 377.975 241.014 377.345 241.131C376.738 241.271 376.12 241.341 375.49 241.341C373.343 241.341 371.722 240.886 370.625 239.976C369.552 239.043 369.015 237.386 369.015 235.006V225.591H366.39V220.866H369.015V216.456H375.315V220.866ZM388.739 215.791H396.019L397.594 226.326L398.679 233.536L399.869 226.326L401.444 215.791H408.339L402.599 240.991H394.479L388.739 215.791ZM409.413 220.866H415.713V240.991H409.413V220.866ZM409.238 214.566H415.888V219.326H409.238V214.566ZM427.044 241.341C425.668 241.341 424.408 241.189 423.264 240.886C422.144 240.583 421.176 240.046 420.359 239.276C419.543 238.506 418.913 237.444 418.469 236.091C418.026 234.738 417.804 233.011 417.804 230.911C417.804 227.504 418.434 224.938 419.694 223.211C420.978 221.461 423.031 220.586 425.854 220.586C428.421 220.586 430.276 221.298 431.419 222.721C432.586 224.121 433.169 226.209 433.169 228.986C433.169 229.639 433.146 230.316 433.099 231.016C433.053 231.693 432.971 232.311 432.854 232.871H424.489C424.629 234.294 425.026 235.251 425.679 235.741C426.333 236.208 427.429 236.441 428.969 236.441C429.506 236.441 430.054 236.394 430.614 236.301C431.198 236.208 431.758 236.103 432.294 235.986V240.746C431.478 240.909 430.614 241.049 429.704 241.166C428.818 241.283 427.931 241.341 427.044 241.341ZM426.099 225.206C425.166 225.206 424.618 226.466 424.454 228.986H427.324C427.324 228.473 427.301 227.924 427.254 227.341C427.231 226.758 427.126 226.256 426.939 225.836C426.776 225.416 426.496 225.206 426.099 225.206ZM455.499 240.991H448.499L447.554 236.861L446.714 231.401L445.874 236.861L444.894 240.991H437.894L433.344 220.866H439.749L441.184 230.911L441.744 234.201L442.304 230.911L443.774 220.866H450.144L451.614 230.911L452.174 234.201L452.734 230.911L454.029 220.866H460.399L455.499 240.991ZM470.008 241.341C468.632 241.341 467.372 241.189 466.228 240.886C465.108 240.583 464.14 240.046 463.323 239.276C462.507 238.506 461.877 237.444 461.433 236.091C460.99 234.738 460.768 233.011 460.768 230.911C460.768 227.504 461.398 224.938 462.658 223.211C463.942 221.461 465.995 220.586 468.818 220.586C471.385 220.586 473.24 221.298 474.383 222.721C475.55 224.121 476.133 226.209 476.133 228.986C476.133 229.639 476.11 230.316 476.063 231.016C476.017 231.693 475.935 232.311 475.818 232.871H467.453C467.593 234.294 467.99 235.251 468.643 235.741C469.297 236.208 470.393 236.441 471.933 236.441C472.47 236.441 473.018 236.394 473.578 236.301C474.162 236.208 474.722 236.103 475.258 235.986V240.746C474.442 240.909 473.578 241.049 472.668 241.166C471.782 241.283 470.895 241.341 470.008 241.341ZM469.063 225.206C468.13 225.206 467.582 226.466 467.418 228.986H470.288C470.288 228.473 470.265 227.924 470.218 227.341C470.195 226.758 470.09 226.256 469.903 225.836C469.74 225.416 469.46 225.206 469.063 225.206ZM478.046 240.991V220.866H483.401L484.101 223.666H484.171C484.544 222.499 485.197 221.648 486.131 221.111C487.087 220.574 488.289 220.434 489.736 220.691V226.641C488.826 226.641 487.881 226.699 486.901 226.816C485.944 226.933 485.092 227.096 484.346 227.306V240.991H478.046Z" fill="#4B4B4B"/>
</g>
<defs>
<clipPath id="clip0_1127_4">
<rect width="490.393" height="257.991" fill="white"/>
</clipPath>
</defs>
</svg>
