<svg width="475" height="285" viewBox="0 0 475 285" fill="none" xmlns="http://www.w3.org/2000/svg">
<path d="M36.4304 192.873C40.9379 192.873 44.3185 192.22 46.5723 190.915C48.8261 189.611 49.9529 187.476 49.9529 184.51C49.9529 182.494 49.4192 180.892 48.3516 179.706C47.284 178.52 45.3861 177.334 42.6579 176.147L23.7975 167.429C16.799 164.226 11.4018 159.956 7.606 154.618C3.8102 149.28 1.9123 141.511 1.9123 131.309C1.9123 118.261 5.29293 108.535 12.0542 102.129C18.9341 95.6052 30.2622 92.2839 46.0385 92.1653C52.5626 92.1653 58.4935 92.4618 63.8313 93.0549C69.1692 93.648 73.4395 94.3004 76.6422 95.0121C79.8449 95.6052 81.4462 95.9017 81.4462 95.9017L77.8877 124.548C77.8877 124.548 76.405 124.37 73.4395 124.014C70.5926 123.659 67.0341 123.362 62.7638 123.125C58.4935 122.769 54.3418 122.591 50.3088 122.591C46.0385 122.591 42.7765 123.243 40.5227 124.548C38.3876 125.734 37.32 128.047 37.32 131.487C37.32 133.385 38.1504 134.987 39.811 136.291C41.4717 137.478 43.7848 138.723 46.7502 140.028L61.8741 146.611C69.9402 150.17 75.8119 154.618 79.489 159.956C83.1662 165.175 85.0048 172.648 85.0048 182.375C85.0048 195.542 81.5649 205.684 74.685 212.801C67.8051 219.918 56.477 223.536 40.7007 223.654C32.8718 223.654 25.5768 223.12 18.8155 222.053C12.0542 221.104 6.06396 219.977 0.844727 218.672L4.40329 190.026C4.40329 190.026 5.82672 190.263 8.67357 190.738C11.639 191.212 15.5535 191.686 20.4168 192.161C25.2802 192.635 30.6181 192.873 36.4304 192.873Z" fill="#C44A50"/>
<path d="M94.7325 221.875L94.5904 93.7666H136.19C146.865 93.7666 155.703 95.2493 162.701 98.2148C169.7 101.062 174.919 105.925 178.359 112.805C181.799 119.685 183.519 129.056 183.519 140.918C183.519 157.287 179.604 169.09 171.775 176.325C163.947 183.561 152.085 187.179 136.19 187.179H129.428V221.875H94.7325ZM129.428 161.735C135.122 161.735 139.333 160.193 142.061 157.109C144.908 154.025 146.332 148.509 146.332 140.562C146.332 134.512 145.798 129.945 144.73 126.861C143.781 123.777 142.061 121.701 139.57 120.634C137.198 119.448 133.817 118.855 129.428 118.855V161.735Z" fill="#C44A50"/>
<path d="M216.063 204.616L212.682 221.875H175.495L203.102 102.134L164.842 68.5536L237.815 86.8395L219.426 110.763L254.251 108.535L278.694 221.875H241.863L238.482 204.616H216.063ZM219.621 177.037H234.745L227.272 130.42L219.621 177.037Z" fill="#C44A50"/>
<path d="M322.656 93.7666C333.094 93.7666 341.813 95.1307 348.811 97.859C355.81 100.469 361.029 104.917 364.469 111.204C368.028 117.372 369.807 125.853 369.807 136.647C369.807 145.662 368.443 153.076 365.715 158.888C362.986 164.582 358.835 169.149 353.26 172.589L374.967 221.875H336.356L322.3 180.24H316.606V221.875H281.91V112.094L305.805 117.847L285.259 93.7666H322.656ZM316.606 156.397C322.063 156.397 326.096 155.033 328.705 152.305C331.315 149.577 332.62 144.773 332.62 137.893C332.62 132.436 332.145 128.403 331.196 125.794C330.247 123.065 328.587 121.227 326.214 120.278C323.961 119.329 320.758 118.855 316.606 118.855V156.397Z" fill="#C44A50"/>
<path d="M383.865 93.7666H418.561V145.188L437.599 93.7666H474.964L451.121 155.864L473.718 221.875H436.353L418.561 167.607V221.875H383.865V93.7666Z" fill="#C44A50"/>
<path fill-rule="evenodd" clip-rule="evenodd" d="M277.48 73.1352L293.514 17.5023L336.688 0.751343L312.755 43.7856L277.48 73.1352Z" fill="#C44A50"/>
<path fill-rule="evenodd" clip-rule="evenodd" d="M240.865 27.6537L253.133 71.0804L227.57 47.3206L240.865 27.6537Z" fill="#C44A50"/>
<path d="M96.1861 261.287C96.1861 262.865 96.3034 264.124 96.5381 265.063C96.7727 266.001 97.1674 266.684 97.7221 267.111C98.2981 267.537 99.0874 267.793 100.09 267.879V265.671L98.3301 261.287H105.85V271.591C105.167 272.039 104.282 272.391 103.194 272.647C102.106 272.881 100.858 272.999 99.4501 272.999C97.4021 272.999 95.6314 272.615 94.1381 271.847C92.6447 271.079 91.4927 269.841 90.6821 268.135C89.8714 266.407 89.4661 264.135 89.4661 261.319C89.4661 258.481 89.9034 256.188 90.7781 254.439C91.6527 252.689 92.8794 251.409 94.4581 250.599C96.0367 249.788 97.8714 249.383 99.9621 249.383C100.709 249.383 101.487 249.447 102.298 249.575C103.109 249.703 103.941 249.852 104.794 250.023L104.218 255.271C103.514 255.143 102.906 255.047 102.394 254.983C101.903 254.897 101.402 254.855 100.89 254.855C99.7807 254.855 98.8741 255.036 98.1701 255.399C97.4874 255.761 96.9861 256.412 96.6661 257.351C96.3461 258.268 96.1861 259.58 96.1861 261.287ZM111.894 272.999C111.041 272.999 110.241 272.785 109.494 272.359C108.747 271.911 108.139 271.271 107.67 270.439C107.201 269.607 106.966 268.604 106.966 267.431C106.966 265.596 107.606 264.209 108.886 263.271C110.187 262.332 111.862 261.863 113.91 261.863H115.286V260.103C115.286 259.484 115.073 259.068 114.646 258.855C114.219 258.62 113.675 258.503 113.014 258.503C112.203 258.503 111.425 258.577 110.678 258.727C109.931 258.876 109.185 259.089 108.438 259.367V254.887C109.398 254.673 110.39 254.481 111.414 254.311C112.459 254.119 113.505 254.023 114.55 254.023C115.723 254.023 116.801 254.172 117.782 254.471C118.763 254.748 119.553 255.26 120.15 256.007C120.747 256.753 121.046 257.82 121.046 259.207V272.679H116.054L115.67 271.303C115.137 271.879 114.539 272.305 113.878 272.583C113.217 272.86 112.555 272.999 111.894 272.999ZM114.134 268.775C114.561 268.775 114.945 268.583 115.286 268.199V265.031H114.87C114.23 265.031 113.686 265.191 113.238 265.511C112.79 265.809 112.566 266.268 112.566 266.887C112.566 267.484 112.726 267.953 113.046 268.295C113.366 268.615 113.729 268.775 114.134 268.775ZM132.186 271.431C131.588 271.921 130.948 272.305 130.266 272.583C129.583 272.86 128.9 272.999 128.218 272.999C126.81 272.999 125.636 272.54 124.698 271.623C123.759 270.705 123.29 269.329 123.29 267.495V254.279H129.05V266.503C129.05 267.804 129.572 268.455 130.618 268.455C131.023 268.455 131.396 268.337 131.738 268.103V254.279H137.498V272.679H132.602L132.186 271.431ZM145.964 267.303C145.964 266.94 145.697 266.588 145.164 266.247L142.412 264.455C141.409 263.793 140.684 263.079 140.236 262.311C139.788 261.543 139.564 260.54 139.564 259.303C139.564 257.532 140.086 256.22 141.132 255.367C142.177 254.492 143.894 254.044 146.284 254.023C147.18 254.023 148.001 254.065 148.748 254.151C149.516 254.215 150.124 254.289 150.572 254.375C151.041 254.46 151.276 254.503 151.276 254.503L150.796 258.759C150.796 258.759 150.636 258.737 150.316 258.695C149.996 258.652 149.58 258.609 149.068 258.567C148.577 258.503 148.065 258.471 147.532 258.471C146.764 258.471 146.209 258.535 145.868 258.663C145.526 258.791 145.356 259.036 145.356 259.399C145.356 259.612 145.42 259.793 145.548 259.943C145.676 260.071 145.878 260.22 146.156 260.391L148.972 262.215C149.996 262.876 150.732 263.591 151.18 264.359C151.628 265.105 151.852 266.076 151.852 267.271C151.852 269.169 151.308 270.599 150.22 271.559C149.132 272.497 147.35 272.977 144.876 272.999C143.788 272.999 142.785 272.935 141.868 272.807C140.972 272.7 140.15 272.551 139.404 272.359L139.884 268.007C139.884 268.007 140.278 268.071 141.068 268.199C141.857 268.305 142.902 268.359 144.204 268.359C145.377 268.359 145.964 268.007 145.964 267.303ZM159.682 267.303C159.682 266.94 159.416 266.588 158.882 266.247L156.13 264.455C155.128 263.793 154.402 263.079 153.954 262.311C153.506 261.543 153.282 260.54 153.282 259.303C153.282 257.532 153.805 256.22 154.85 255.367C155.896 254.492 157.613 254.044 160.002 254.023C160.898 254.023 161.72 254.065 162.466 254.151C163.234 254.215 163.842 254.289 164.29 254.375C164.76 254.46 164.994 254.503 164.994 254.503L164.514 258.759C164.514 258.759 164.354 258.737 164.034 258.695C163.714 258.652 163.298 258.609 162.786 258.567C162.296 258.503 161.784 258.471 161.25 258.471C160.482 258.471 159.928 258.535 159.586 258.663C159.245 258.791 159.074 259.036 159.074 259.399C159.074 259.612 159.138 259.793 159.266 259.943C159.394 260.071 159.597 260.22 159.874 260.391L162.69 262.215C163.714 262.876 164.45 263.591 164.898 264.359C165.346 265.105 165.57 266.076 165.57 267.271C165.57 269.169 165.026 270.599 163.938 271.559C162.85 272.497 161.069 272.977 158.594 272.999C157.506 272.999 156.504 272.935 155.586 272.807C154.69 272.7 153.869 272.551 153.122 272.359L153.602 268.007C153.602 268.007 153.997 268.071 154.786 268.199C155.576 268.305 156.621 268.359 157.922 268.359C159.096 268.359 159.682 268.007 159.682 267.303ZM167.481 254.279H173.241V272.679H167.481V254.279ZM167.321 248.519H173.401V252.871H167.321V248.519ZM180.082 272.999C179.228 272.999 178.428 272.785 177.682 272.359C176.935 271.911 176.327 271.271 175.858 270.439C175.388 269.607 175.154 268.604 175.154 267.431C175.154 265.596 175.794 264.209 177.074 263.271C178.375 262.332 180.05 261.863 182.098 261.863H183.474V260.103C183.474 259.484 183.26 259.068 182.834 258.855C182.407 258.62 181.863 258.503 181.202 258.503C180.391 258.503 179.612 258.577 178.866 258.727C178.119 258.876 177.372 259.089 176.626 259.367V254.887C177.586 254.673 178.578 254.481 179.602 254.311C180.647 254.119 181.692 254.023 182.738 254.023C183.911 254.023 184.988 254.172 185.97 254.471C186.951 254.748 187.74 255.26 188.338 256.007C188.935 256.753 189.234 257.82 189.234 259.207V272.679H184.242L183.858 271.303C183.324 271.879 182.727 272.305 182.066 272.583C181.404 272.86 180.743 272.999 180.082 272.999ZM182.322 268.775C182.748 268.775 183.132 268.583 183.474 268.199V265.031H183.058C182.418 265.031 181.874 265.191 181.426 265.511C180.978 265.809 180.754 266.268 180.754 266.887C180.754 267.484 180.914 267.953 181.234 268.295C181.554 268.615 181.916 268.775 182.322 268.775ZM196.949 255.527C198.208 254.524 199.573 254.023 201.045 254.023C202.517 254.023 203.733 254.481 204.693 255.399C205.675 256.316 206.165 257.692 206.165 259.527V272.679H200.405V260.455C200.405 259.153 199.819 258.503 198.645 258.503C198.176 258.503 197.76 258.62 197.397 258.855V272.679H191.637V254.279H196.533L196.949 255.527ZM222.495 267.463C223.305 267.463 223.913 267.345 224.319 267.111C224.724 266.876 224.927 266.492 224.927 265.959C224.927 265.596 224.831 265.308 224.639 265.095C224.447 264.881 224.105 264.668 223.615 264.455L220.223 262.887C218.964 262.311 217.993 261.543 217.311 260.583C216.628 259.623 216.287 258.225 216.287 256.391C216.287 254.044 216.895 252.295 218.111 251.143C219.348 249.969 221.385 249.372 224.223 249.351C225.396 249.351 226.463 249.404 227.423 249.511C228.383 249.617 229.151 249.735 229.727 249.863C230.303 249.969 230.591 250.023 230.591 250.023L229.951 255.175C229.951 255.175 229.684 255.143 229.151 255.079C228.639 255.015 227.999 254.961 227.231 254.919C226.463 254.855 225.716 254.823 224.991 254.823C224.223 254.823 223.636 254.94 223.231 255.175C222.847 255.388 222.655 255.804 222.655 256.423C222.655 256.764 222.804 257.052 223.103 257.287C223.401 257.5 223.817 257.724 224.351 257.959L227.071 259.143C228.521 259.783 229.577 260.583 230.239 261.543C230.9 262.481 231.231 263.825 231.231 265.575C231.231 267.943 230.612 269.767 229.375 271.047C228.137 272.327 226.1 272.977 223.263 272.999C221.855 272.999 220.543 272.903 219.327 272.711C218.111 272.54 217.033 272.337 216.095 272.103L216.735 266.951C216.735 266.951 216.991 266.993 217.503 267.079C218.036 267.164 218.74 267.249 219.615 267.335C220.489 267.42 221.449 267.463 222.495 267.463ZM233.325 277.479V254.279H238.221L238.701 255.751C239.191 255.196 239.778 254.769 240.461 254.471C241.165 254.172 241.922 254.023 242.733 254.023C243.906 254.023 244.866 254.279 245.613 254.791C246.381 255.281 246.978 255.964 247.405 256.839C247.853 257.713 248.162 258.705 248.333 259.815C248.525 260.903 248.621 262.055 248.621 263.271C248.621 266.769 248.077 269.265 246.989 270.759C245.901 272.252 244.311 272.999 242.221 272.999C241.282 272.999 240.237 272.807 239.085 272.423V276.647L233.325 277.479ZM240.397 268.519C241.378 268.519 241.997 268.071 242.253 267.175C242.53 266.279 242.669 264.924 242.669 263.111C242.669 261.425 242.541 260.241 242.285 259.559C242.029 258.855 241.549 258.503 240.845 258.503C240.631 258.503 240.375 258.545 240.077 258.631C239.778 258.716 239.447 258.855 239.085 259.047V268.327C239.575 268.455 240.013 268.519 240.397 268.519ZM256.304 272.679H250.544V249.287L256.304 248.519V272.679ZM263.144 272.999C262.291 272.999 261.491 272.785 260.744 272.359C259.997 271.911 259.389 271.271 258.92 270.439C258.451 269.607 258.216 268.604 258.216 267.431C258.216 265.596 258.856 264.209 260.136 263.271C261.437 262.332 263.112 261.863 265.16 261.863H266.536V260.103C266.536 259.484 266.323 259.068 265.896 258.855C265.469 258.62 264.925 258.503 264.264 258.503C263.453 258.503 262.675 258.577 261.928 258.727C261.181 258.876 260.435 259.089 259.688 259.367V254.887C260.648 254.673 261.64 254.481 262.664 254.311C263.709 254.119 264.755 254.023 265.8 254.023C266.973 254.023 268.051 254.172 269.032 254.471C270.013 254.748 270.803 255.26 271.4 256.007C271.997 256.753 272.296 257.82 272.296 259.207V272.679H267.304L266.92 271.303C266.387 271.879 265.789 272.305 265.128 272.583C264.467 272.86 263.805 272.999 263.144 272.999ZM265.384 268.775C265.811 268.775 266.195 268.583 266.536 268.199V265.031H266.12C265.48 265.031 264.936 265.191 264.488 265.511C264.04 265.809 263.816 266.268 263.816 266.887C263.816 267.484 263.976 267.953 264.296 268.295C264.616 268.615 264.979 268.775 265.384 268.775ZM281.9 254.279H285.388V258.599H281.9V266.567C281.9 267.164 282.049 267.601 282.348 267.879C282.668 268.156 283.169 268.295 283.852 268.295C284.193 268.295 284.492 268.284 284.748 268.263C285.004 268.22 285.217 268.177 285.388 268.135V272.391C284.876 272.561 284.332 272.7 283.756 272.807C283.201 272.935 282.636 272.999 282.06 272.999C280.097 272.999 278.614 272.583 277.612 271.751C276.63 270.897 276.14 269.383 276.14 267.207V258.599H273.74V254.279H276.14V250.247H281.9V254.279ZM294.174 249.639H300.83L302.27 259.271L303.262 265.863L304.35 259.271L305.79 249.639H312.094L306.846 272.679H299.422L294.174 249.639ZM313.075 254.279H318.835V272.679H313.075V254.279ZM312.915 248.519H318.995V252.871H312.915V248.519ZM329.195 272.999C327.937 272.999 326.785 272.86 325.739 272.583C324.715 272.305 323.83 271.815 323.083 271.111C322.337 270.407 321.761 269.436 321.355 268.199C320.95 266.961 320.747 265.383 320.747 263.463C320.747 260.348 321.323 258.001 322.475 256.423C323.649 254.823 325.526 254.023 328.107 254.023C330.454 254.023 332.15 254.673 333.195 255.975C334.262 257.255 334.795 259.164 334.795 261.703C334.795 262.3 334.774 262.919 334.731 263.559C334.689 264.177 334.614 264.743 334.507 265.255H326.859C326.987 266.556 327.35 267.431 327.947 267.879C328.545 268.305 329.547 268.519 330.955 268.519C331.446 268.519 331.947 268.476 332.459 268.391C332.993 268.305 333.505 268.209 333.995 268.103V272.455C333.249 272.604 332.459 272.732 331.627 272.839C330.817 272.945 330.006 272.999 329.195 272.999ZM328.331 258.247C327.478 258.247 326.977 259.399 326.827 261.703H329.451C329.451 261.233 329.43 260.732 329.387 260.199C329.366 259.665 329.27 259.207 329.099 258.823C328.95 258.439 328.694 258.247 328.331 258.247ZM355.211 272.679H348.811L347.947 268.903L347.179 263.911L346.411 268.903L345.515 272.679H339.115L334.955 254.279H340.811L342.123 263.463L342.635 266.471L343.147 263.463L344.491 254.279H350.315L351.659 263.463L352.171 266.471L352.683 263.463L353.867 254.279H359.691L355.211 272.679ZM368.477 272.999C367.218 272.999 366.066 272.86 365.021 272.583C363.997 272.305 363.111 271.815 362.365 271.111C361.618 270.407 361.042 269.436 360.637 268.199C360.231 266.961 360.029 265.383 360.029 263.463C360.029 260.348 360.605 258.001 361.757 256.423C362.93 254.823 364.807 254.023 367.389 254.023C369.735 254.023 371.431 254.673 372.477 255.975C373.543 257.255 374.077 259.164 374.077 261.703C374.077 262.3 374.055 262.919 374.013 263.559C373.97 264.177 373.895 264.743 373.789 265.255H366.141C366.269 266.556 366.631 267.431 367.229 267.879C367.826 268.305 368.829 268.519 370.237 268.519C370.727 268.519 371.229 268.476 371.741 268.391C372.274 268.305 372.786 268.209 373.277 268.103V272.455C372.53 272.604 371.741 272.732 370.909 272.839C370.098 272.945 369.287 272.999 368.477 272.999ZM367.613 258.247C366.759 258.247 366.258 259.399 366.109 261.703H368.733C368.733 261.233 368.711 260.732 368.669 260.199C368.647 259.665 368.551 259.207 368.381 258.823C368.231 258.439 367.975 258.247 367.613 258.247ZM375.825 272.679V254.279H380.721L381.361 256.839H381.425C381.766 255.772 382.363 254.993 383.217 254.503C384.091 254.012 385.19 253.884 386.513 254.119V259.559C385.681 259.559 384.817 259.612 383.921 259.719C383.046 259.825 382.267 259.975 381.585 260.167V272.679H375.825Z" fill="#4B4B4B"/>
</svg>
