<svg width="17" height="17" viewBox="0 0 17 17" fill="none" xmlns="http://www.w3.org/2000/svg">
<path d="M2.54847 16.1252C1.98252 16.1252 1.49821 15.9239 1.09553 15.5212C0.692847 15.1185 0.491165 14.6339 0.490479 14.0673V12.0093C0.490479 11.7177 0.589262 11.4735 0.786829 11.2766C0.984396 11.0797 1.22861 10.981 1.51947 10.9803C1.81034 10.9796 2.05489 11.0784 2.25315 11.2766C2.4514 11.4749 2.54984 11.7191 2.54847 12.0093V14.0673H14.8964V12.0093C14.8964 11.7177 14.9952 11.4735 15.1928 11.2766C15.3903 11.0797 15.6345 10.981 15.9254 10.9803C16.2163 10.9796 16.4608 11.0784 16.6591 11.2766C16.8573 11.4749 16.9558 11.7191 16.9544 12.0093V14.0673C16.9544 14.6332 16.7531 15.1179 16.3504 15.5212C15.9477 15.9246 15.463 16.1259 14.8964 16.1252H2.54847ZM7.69344 3.62296L5.76408 5.55232C5.55828 5.75812 5.31406 5.8569 5.03143 5.84867C4.7488 5.84044 4.50424 5.73308 4.29776 5.5266C4.10911 5.3208 4.01033 5.0807 4.00141 4.8063C3.99249 4.5319 4.09127 4.2918 4.29776 4.086L8.00214 0.381622C8.10504 0.278722 8.21652 0.206007 8.33656 0.163475C8.45661 0.120943 8.58524 0.0993346 8.72244 0.0986486C8.85964 0.0979626 8.98826 0.119571 9.10831 0.163475C9.22836 0.207379 9.33983 0.280094 9.44273 0.381622L13.1471 4.086C13.3529 4.2918 13.4517 4.5319 13.4435 4.8063C13.4352 5.0807 13.3365 5.3208 13.1471 5.5266C12.9413 5.73239 12.6971 5.83975 12.4145 5.84867C12.1318 5.85759 11.8873 5.75881 11.6808 5.55232L9.75143 3.62296V10.9803C9.75143 11.2718 9.65265 11.5164 9.45508 11.7139C9.25752 11.9115 9.0133 12.0099 8.72244 12.0093C8.43158 12.0086 8.18736 11.9098 7.98979 11.7129C7.79223 11.516 7.69344 11.2718 7.69344 10.9803V3.62296Z" fill="#818181"/>
</svg>
