<?xml version="1.0" encoding="UTF-8" standalone="no"?>
<svg
   width="530"
   height="250"
   viewBox="0 0 530 250"
   fill="none"
   version="1.1"
   id="svg278"
   sodipodi:docname="logo.svg"
   inkscape:version="1.2.1 (9c6d41e, 2022-07-14)"
   xmlns:inkscape="http://www.inkscape.org/namespaces/inkscape"
   xmlns:sodipodi="http://sodipodi.sourceforge.net/DTD/sodipodi-0.dtd"
   xmlns="http://www.w3.org/2000/svg"
   xmlns:svg="http://www.w3.org/2000/svg">
  <defs
     id="defs282" />
  <sodipodi:namedview
     id="namedview280"
     pagecolor="#ffffff"
     bordercolor="#000000"
     borderopacity="0.25"
     inkscape:showpageshadow="2"
     inkscape:pageopacity="0.0"
     inkscape:pagecheckerboard="0"
     inkscape:deskcolor="#d1d1d1"
     showgrid="false"
     inkscape:zoom="0.944"
     inkscape:cx="265.36017"
     inkscape:cy="125"
     inkscape:window-width="1309"
     inkscape:window-height="456"
     inkscape:window-x="0"
     inkscape:window-y="25"
     inkscape:window-maximized="0"
     inkscape:current-layer="svg278" />
  <path
     d="M40.3564 215.311C45.3883 215.311 49.1623 214.583 51.6782 213.126C54.1942 211.67 55.4521 209.286 55.4521 205.976C55.4521 203.725 54.8563 201.937 53.6645 200.613C52.4727 199.289 50.354 197.964 47.3084 196.64L26.2539 186.907C18.4412 183.332 12.4161 178.565 8.17872 172.606C3.94132 166.647 1.82263 157.974 1.82263 146.586C1.82263 132.02 5.59656 121.162 13.1444 114.011C20.8247 106.728 33.4707 103.02 51.0823 102.888C58.3653 102.888 64.9863 103.219 70.9451 103.881C76.904 104.543 81.671 105.271 85.2463 106.066C88.8216 106.728 90.6093 107.059 90.6093 107.059L86.6367 139.038C86.6367 139.038 84.9815 138.84 81.671 138.442C78.493 138.045 74.5204 137.714 69.7533 137.449C64.9863 137.052 60.3516 136.853 55.8494 136.853C51.0823 136.853 47.4408 137.582 44.9249 139.038C42.5413 140.362 41.3496 142.944 41.3496 146.785C41.3496 148.903 42.2765 150.691 44.1304 152.148C45.9842 153.472 48.5664 154.862 51.8768 156.319L68.7602 163.668C77.7647 167.641 84.3194 172.606 88.4244 178.565C92.5293 184.392 94.5818 192.734 94.5818 203.592C94.5818 218.291 90.7417 229.612 83.0614 237.558C75.3811 245.503 62.7352 249.541 45.1235 249.674C36.3839 249.674 28.2401 249.078 20.6923 247.886C13.1444 246.827 6.45728 245.569 0.630859 244.112L4.60342 212.133C4.60342 212.133 6.19244 212.398 9.37048 212.928C12.6809 213.457 17.0508 213.987 22.4799 214.517C27.9091 215.046 33.8679 215.311 40.3564 215.311Z"
     fill="black"
     id="path264"
     style="fill:#ffffff" />
  <path
     d="M105.441 247.688L105.283 104.676H151.721C163.639 104.676 173.504 106.331 181.317 109.641C189.13 112.819 194.956 118.248 198.796 125.929C202.636 133.609 204.556 144.07 204.556 157.312C204.556 175.586 200.187 188.761 191.447 196.839C182.707 204.916 169.466 208.955 151.721 208.955H144.174V247.688H105.441ZM144.174 180.551C150.53 180.551 155.231 178.83 158.276 175.387C161.454 171.944 163.043 165.787 163.043 156.915C163.043 150.161 162.447 145.063 161.256 141.62C160.196 138.177 158.276 135.86 155.495 134.668C152.847 133.344 149.073 132.682 144.174 132.682V180.551Z"
     fill="black"
     id="path266"
     style="fill:#ffffff" />
  <path
     d="M240.887 228.421L237.113 247.688H195.6L226.418 114.017L183.707 76.5293L265.17 96.9426L244.641 123.649L283.517 121.162L310.804 247.688H269.688L265.914 228.421H240.887ZM244.859 197.633H261.743L253.4 145.593L244.859 197.633Z"
     fill="black"
     id="path268"
     style="fill:#ffffff" />
  <path
     d="M359.88 104.676C371.533 104.676 381.266 106.198 389.079 109.244C396.891 112.157 402.718 117.123 406.558 124.141C410.53 131.027 412.517 140.495 412.517 152.545C412.517 162.609 410.994 170.885 407.948 177.373C404.903 183.729 400.268 188.828 394.044 192.668L418.277 247.688H375.175L359.483 201.209H353.127V247.688H314.395V125.135L341.069 131.557L318.133 104.676H359.88ZM353.127 174.593C359.218 174.593 363.72 173.07 366.634 170.024C369.547 166.978 371.003 161.616 371.003 153.935C371.003 147.844 370.474 143.342 369.414 140.429C368.355 137.383 366.501 135.33 363.853 134.271C361.337 133.212 357.762 132.682 353.127 132.682V174.593Z"
     fill="black"
     id="path270"
     style="fill:#ffffff" />
  <path
     d="M428.21 104.676H466.942V162.079L488.195 104.676H529.907L503.291 173.997L528.517 247.688H486.805L466.942 187.106V247.688H428.21V104.676Z"
     fill="black"
     id="path272"
     style="fill:#ffffff" />
  <path
     fill-rule="evenodd"
     clip-rule="evenodd"
     d="M309.449 81.6439L327.348 19.5389L375.544 0.839203L348.827 48.8799L309.449 81.6439Z"
     fill="black"
     id="path274"
     style="fill:#ffffff" />
  <path
     fill-rule="evenodd"
     clip-rule="evenodd"
     d="M268.575 30.8712L282.27 79.3501L253.733 52.8261L268.575 30.8712Z"
     fill="black"
     id="path276"
     style="fill:#ffffff" />
</svg>
